<svg xmlns="http://www.w3.org/2000/svg" viewBox="0.638300000000001 160 573.7230276367188 255"><rect height="100%" width="100%" x="0.638300000000001" y="160" fill="rgba(255, 255, 255, 1)"/> <svg xmlns="http://www.w3.org/2000/svg" xmlns:xlink="http://www.w3.org/1999/xlink" version="1.1" id="Layer_1" x="70.6383" y="230" viewBox="51.23298263549805 48.900001525878906 39.26701736450195 43.89476013183594" xml:space="preserve" height="115" width="102.875" preserveAspectRatio="xMinYMin" enable-background="new 0 0 141.7 141.7" style="overflow: visible;"><path class="st0" d="M88.8,87.5c-0.8,0.7-1.7,1.3-2.7,1.9c-10.8,6.6-24.9,3.3-31.5-7.5c-6.6-10.8-3.2-24.9,7.6-31.5   c1-0.6,1.9-1.1,2.9-1.5c-8.7,7.2-11,19.7-5,29.6C66.3,88.3,78.5,91.9,88.8,87.5z" style="fill: #312783;"></path><path class="st1" d="M65,79.6c-0.6-0.5-1.2-1.1-1.8-1.7c-6.4-7.1-5.9-18.1,1.3-24.5c7.1-6.4,18.1-5.8,24.5,1.4   c0.6,0.6,1.1,1.3,1.5,2c-6.5-5.5-16.2-5.5-22.7,0.4C61.3,62.9,60.2,72.5,65,79.6z" style="fill: #EABD23; fill-opacity: 1;"></path></svg> <svg x="173.513" y="293.5" viewBox="0.8100000023841858 -0.49000000953674316 306.0899963378906 17.729999542236328" height="17.729999542236328" width="306.0899963378906" xmlns="http://www.w3.org/2000/svg" style="overflow: visible;"><g fill="#000" style=""><path d="M9.38 1.46L8.64 2.93Q7.96 2.57 7.16 2.32Q6.37 2.07 5.63 2.07L5.63 2.07Q4.63 2.07 4.03 2.53Q3.44 2.99 3.44 3.78L3.44 3.78Q3.44 4.34 3.83 4.75Q4.23 5.17 4.86 5.47Q5.49 5.78 6.19 6.05L6.19 6.05Q6.79 6.26 7.37 6.56Q7.96 6.86 8.43 7.29Q8.91 7.72 9.19 8.36Q9.47 9 9.47 9.92L9.47 9.92Q9.47 10.96 8.96 11.81Q8.44 12.65 7.48 13.15Q6.52 13.64 5.15 13.64L5.15 13.64Q4.32 13.64 3.54 13.46Q2.75 13.27 2.06 12.95Q1.37 12.64 0.81 12.26L0.81 12.26L1.67 10.76Q2.11 11.07 2.66 11.35Q3.22 11.63 3.83 11.79Q4.43 11.95 4.97 11.95L4.97 11.95Q5.56 11.95 6.14 11.75Q6.71 11.54 7.09 11.10Q7.47 10.66 7.47 9.94L7.47 9.94Q7.47 9.32 7.14 8.90Q6.80 8.48 6.26 8.17Q5.71 7.87 5.08 7.63L5.08 7.63Q4.46 7.40 3.83 7.11Q3.20 6.82 2.66 6.42Q2.12 6.01 1.79 5.41Q1.46 4.81 1.46 3.92L1.46 3.92Q1.46 2.88 1.95 2.10Q2.45 1.31 3.33 0.86Q4.21 0.41 5.36 0.36L5.36 0.36Q6.68 0.36 7.65 0.68Q8.62 1.01 9.38 1.46L9.38 1.46ZM12.15 9.65L12.15 9.65Q12.15 8.51 12.69 7.61Q13.23 6.70 14.18 6.17Q15.14 5.65 16.36 5.65L16.36 5.65Q17.60 5.65 18.54 6.17Q19.48 6.70 19.99 7.61Q20.50 8.51 20.50 9.65L20.50 9.65Q20.50 10.78 19.99 11.70Q19.48 12.62 18.54 13.15Q17.60 13.68 16.34 13.68L16.34 13.68Q15.14 13.68 14.19 13.19Q13.25 12.71 12.70 11.80Q12.15 10.89 12.15 9.65ZM14.02 9.67L14.02 9.67Q14.02 10.37 14.33 10.94Q14.63 11.50 15.16 11.84Q15.68 12.17 16.33 12.17L16.33 12.17Q16.99 12.17 17.51 11.84Q18.04 11.50 18.33 10.94Q18.63 10.37 18.63 9.67L18.63 9.67Q18.63 8.96 18.33 8.41Q18.04 7.85 17.51 7.51Q16.99 7.16 16.33 7.16L16.33 7.16Q15.66 7.16 15.14 7.51Q14.62 7.85 14.32 8.42Q14.02 8.98 14.02 9.67ZM23.60 13.50L23.60-0.49L25.45-0.49L25.45 13.50L23.60 13.50ZM32.33 13.68L32.33 13.68Q31.27 13.68 30.40 13.24Q29.54 12.80 29.03 11.92Q28.53 11.03 28.53 9.74L28.53 9.74Q28.53 8.46 29.06 7.54Q29.59 6.62 30.46 6.13Q31.34 5.63 32.36 5.63L32.36 5.63Q33.44 5.63 34.14 6.09Q34.83 6.55 35.23 7.16L35.23 7.16L35.10 7.45L35.28 5.96L36.99 5.96L36.99 13.50L35.14 13.50L35.14 11.61L35.33 12.06Q35.26 12.20 35.03 12.47Q34.79 12.73 34.41 13.01Q34.02 13.30 33.51 13.49Q32.99 13.68 32.33 13.68ZM32.83 12.17L32.83 12.17Q33.43 12.17 33.89 11.95Q34.36 11.74 34.69 11.34Q35.01 10.94 35.14 10.40L35.14 10.40L35.14 8.84Q34.99 8.33 34.65 7.97Q34.31 7.60 33.83 7.38Q33.35 7.16 32.78 7.16L32.78 7.16Q32.13 7.16 31.59 7.48Q31.05 7.79 30.73 8.35Q30.40 8.91 30.40 9.65L30.40 9.65Q30.40 10.35 30.73 10.93Q31.07 11.50 31.63 11.84Q32.18 12.17 32.83 12.17ZM40.73 5.96L42.39 5.96L42.57 8.12L42.48 7.83Q42.79 7.15 43.34 6.66Q43.90 6.17 44.50 5.91Q45.11 5.65 45.52 5.65L45.52 5.65L45.43 7.49Q44.57 7.43 43.93 7.81Q43.29 8.19 42.93 8.82Q42.57 9.45 42.57 10.17L42.57 10.17L42.57 13.50L40.73 13.50L40.73 5.96ZM55.57 0.43L59.17 0.43Q60.62 0.43 61.66 0.93Q62.69 1.42 63.24 2.34Q63.79 3.26 63.79 4.57L63.79 4.57Q63.79 5.35 63.56 6.10Q63.32 6.86 62.81 7.48Q62.30 8.10 61.45 8.47Q60.61 8.84 59.40 8.84L59.40 8.84L57.49 8.84L57.49 13.50L55.57 13.50L55.57 0.43ZM57.49 6.98L59.40 6.98Q60.12 6.98 60.61 6.74Q61.09 6.50 61.37 6.12Q61.65 5.74 61.77 5.34Q61.88 4.93 61.88 4.61L61.88 4.61Q61.88 4.25 61.77 3.84Q61.65 3.44 61.38 3.09Q61.11 2.74 60.64 2.51Q60.17 2.29 59.47 2.29L59.47 2.29L57.49 2.29L57.49 6.98ZM70.06 13.68L70.06 13.68Q68.99 13.68 68.13 13.24Q67.27 12.80 66.76 11.92Q66.26 11.03 66.26 9.74L66.26 9.74Q66.26 8.46 66.79 7.54Q67.32 6.62 68.19 6.13Q69.07 5.63 70.09 5.63L70.09 5.63Q71.17 5.63 71.87 6.09Q72.56 6.55 72.95 7.16L72.95 7.16L72.83 7.45L73.01 5.96L74.72 5.96L74.72 13.50L72.86 13.50L72.86 11.61L73.06 12.06Q72.99 12.20 72.76 12.47Q72.52 12.73 72.14 13.01Q71.75 13.30 71.24 13.49Q70.72 13.68 70.06 13.68ZM70.56 12.17L70.56 12.17Q71.15 12.17 71.62 11.95Q72.09 11.74 72.41 11.34Q72.74 10.94 72.86 10.40L72.86 10.40L72.86 8.84Q72.72 8.33 72.38 7.97Q72.04 7.60 71.56 7.38Q71.08 7.16 70.51 7.16L70.51 7.16Q69.86 7.16 69.32 7.48Q68.78 7.79 68.45 8.35Q68.13 8.91 68.13 9.65L68.13 9.65Q68.13 10.35 68.46 10.93Q68.80 11.50 69.35 11.84Q69.91 12.17 70.56 12.17ZM78.46 5.96L80.12 5.96L80.28 7.69L80.21 7.45Q80.59 6.64 81.38 6.15Q82.17 5.65 83.25 5.65L83.25 5.65Q84.31 5.65 85.01 6.28Q85.70 6.91 85.72 7.92L85.72 7.92L85.72 13.50L83.86 13.50L83.86 8.57Q83.84 7.99 83.52 7.62Q83.20 7.25 82.51 7.24L82.51 7.24Q81.90 7.24 81.40 7.61Q80.89 7.97 80.60 8.60Q80.32 9.23 80.32 10.06L80.32 10.06L80.32 13.50L78.46 13.50L78.46 5.96ZM93.01 13.68L93.01 13.68Q91.69 13.68 90.76 13.17Q89.82 12.65 89.32 11.75Q88.81 10.84 88.81 9.67L88.81 9.67Q88.81 8.55 89.38 7.64Q89.95 6.73 90.91 6.19Q91.87 5.65 93.04 5.65L93.04 5.65Q94.55 5.65 95.55 6.53Q96.55 7.42 96.89 9L96.89 9L90.76 11.12L90.32 10.04L95.24 8.28L94.86 8.51Q94.64 7.96 94.18 7.53Q93.71 7.11 92.90 7.11L92.90 7.11Q92.25 7.11 91.74 7.43Q91.22 7.74 90.93 8.29Q90.63 8.84 90.63 9.58L90.63 9.58Q90.63 10.33 90.95 10.90Q91.26 11.47 91.81 11.79Q92.36 12.11 93.04 12.11L93.04 12.11Q93.53 12.11 93.97 11.93Q94.41 11.75 94.81 11.48L94.81 11.48L95.65 12.85Q95.06 13.23 94.37 13.46Q93.67 13.68 93.01 13.68ZM99.85 13.50L99.85-0.49L101.70-0.49L101.70 13.50L99.85 13.50ZM115.20 13.68L115.20 13.68Q114.14 13.68 113.27 13.24Q112.41 12.80 111.91 11.92Q111.40 11.03 111.40 9.74L111.40 9.74Q111.40 8.46 111.93 7.54Q112.46 6.62 113.34 6.13Q114.21 5.63 115.24 5.63L115.24 5.63Q116.32 5.63 117.01 6.09Q117.70 6.55 118.10 7.16L118.10 7.16L117.97 7.45L118.15 5.96L119.86 5.96L119.86 13.50L118.01 13.50L118.01 11.61L118.21 12.06Q118.13 12.20 117.90 12.47Q117.67 12.73 117.28 13.01Q116.89 13.30 116.38 13.49Q115.87 13.68 115.20 13.68ZM115.70 12.17L115.70 12.17Q116.30 12.17 116.77 11.95Q117.23 11.74 117.56 11.34Q117.88 10.94 118.01 10.40L118.01 10.40L118.01 8.84Q117.86 8.33 117.52 7.97Q117.18 7.60 116.70 7.38Q116.23 7.16 115.65 7.16L115.65 7.16Q115.00 7.16 114.46 7.48Q113.92 7.79 113.60 8.35Q113.27 8.91 113.27 9.65L113.27 9.65Q113.27 10.35 113.61 10.93Q113.94 11.50 114.50 11.84Q115.06 12.17 115.70 12.17ZM123.61 5.96L125.26 5.96L125.42 7.69L125.35 7.45Q125.73 6.64 126.52 6.15Q127.31 5.65 128.39 5.65L128.39 5.65Q129.46 5.65 130.15 6.28Q130.84 6.91 130.86 7.92L130.86 7.92L130.86 13.50L129.01 13.50L129.01 8.57Q128.99 7.99 128.66 7.62Q128.34 7.25 127.66 7.24L127.66 7.24Q127.04 7.24 126.54 7.61Q126.04 7.97 125.75 8.60Q125.46 9.23 125.46 10.06L125.46 10.06L125.46 13.50L123.61 13.50L123.61 5.96ZM137.68 13.68L137.68 13.68Q136.62 13.68 135.77 13.19Q134.93 12.69 134.44 11.77Q133.96 10.85 133.96 9.63L133.96 9.63Q133.96 8.37 134.48 7.48Q135.00 6.59 135.89 6.11Q136.78 5.63 137.90 5.63L137.90 5.63Q138.76 5.63 139.55 5.99Q140.33 6.34 140.76 6.97L140.76 6.97L140.71 7.60L140.71-0.49L142.54-0.49L142.54 13.50L140.69 13.50L140.69 11.72L140.89 12.20Q140.33 12.83 139.52 13.26Q138.71 13.68 137.68 13.68ZM138.26 12.11L138.26 12.11Q138.89 12.11 139.37 11.90Q139.86 11.68 140.20 11.28Q140.54 10.87 140.69 10.33L140.69 10.33L140.69 8.82Q140.56 8.32 140.21 7.93Q139.86 7.54 139.36 7.33Q138.85 7.11 138.26 7.11L138.26 7.11Q137.59 7.11 137.04 7.43Q136.49 7.74 136.16 8.30Q135.83 8.86 135.83 9.59L135.83 9.59Q135.83 10.30 136.16 10.87Q136.49 11.45 137.05 11.78Q137.61 12.11 138.26 12.11ZM157.39 14.11L152.19 0.50L154.42 0.50L157.81 10.12L157.48 9.99L160.04 3.42L160.92 6.03L157.39 14.11ZM163.87 14.08L158.53 0.50L160.43 0.50L164.14 9.95L163.76 9.88L166.93 0.50L168.98 0.50L163.87 14.08ZM171.81 13.50L171.81 5.96L173.66 5.96L173.66 13.50L171.81 13.50ZM171.70 3.26L171.70 3.26Q171.70 2.83 172.04 2.54Q172.39 2.25 172.78 2.25L172.78 2.25Q173.20 2.25 173.52 2.54Q173.84 2.83 173.84 3.26L173.84 3.26Q173.84 3.69 173.52 3.97Q173.20 4.25 172.78 4.25L172.78 4.25Q172.39 4.25 172.04 3.97Q171.70 3.69 171.70 3.26ZM177.39 5.96L179.05 5.96L179.21 7.69L179.14 7.45Q179.51 6.64 180.31 6.15Q181.10 5.65 182.18 5.65L182.18 5.65Q183.24 5.65 183.93 6.28Q184.63 6.91 184.64 7.92L184.64 7.92L184.64 13.50L182.79 13.50L182.79 8.57Q182.77 7.99 182.45 7.62Q182.12 7.25 181.44 7.24L181.44 7.24Q180.83 7.24 180.32 7.61Q179.82 7.97 179.53 8.60Q179.24 9.23 179.24 10.06L179.24 10.06L179.24 13.50L177.39 13.50L177.39 5.96ZM191.47 13.68L191.47 13.68Q190.40 13.68 189.56 13.19Q188.71 12.69 188.23 11.77Q187.74 10.85 187.74 9.63L187.74 9.63Q187.74 8.37 188.26 7.48Q188.78 6.59 189.68 6.11Q190.57 5.63 191.68 5.63L191.68 5.63Q192.55 5.63 193.33 5.99Q194.11 6.34 194.54 6.97L194.54 6.97L194.49 7.60L194.49-0.49L196.33-0.49L196.33 13.50L194.47 13.50L194.47 11.72L194.67 12.20Q194.11 12.83 193.30 13.26Q192.49 13.68 191.47 13.68ZM192.04 12.11L192.04 12.11Q192.67 12.11 193.16 11.90Q193.64 11.68 193.99 11.28Q194.33 10.87 194.47 10.33L194.47 10.33L194.47 8.82Q194.35 8.32 194.00 7.93Q193.64 7.54 193.14 7.33Q192.64 7.11 192.04 7.11L192.04 7.11Q191.38 7.11 190.83 7.43Q190.28 7.74 189.95 8.30Q189.61 8.86 189.61 9.59L189.61 9.59Q189.61 10.30 189.95 10.87Q190.28 11.45 190.84 11.78Q191.39 12.11 192.04 12.11ZM199.42 9.65L199.42 9.65Q199.42 8.51 199.96 7.61Q200.50 6.70 201.46 6.17Q202.41 5.65 203.63 5.65L203.63 5.65Q204.88 5.65 205.81 6.17Q206.75 6.70 207.26 7.61Q207.77 8.51 207.77 9.65L207.77 9.65Q207.77 10.78 207.26 11.70Q206.75 12.62 205.81 13.15Q204.88 13.68 203.62 13.68L203.62 13.68Q202.41 13.68 201.47 13.19Q200.52 12.71 199.97 11.80Q199.42 10.89 199.42 9.65ZM201.29 9.67L201.29 9.67Q201.29 10.37 201.60 10.94Q201.91 11.50 202.43 11.84Q202.95 12.17 203.60 12.17L203.60 12.17Q204.26 12.17 204.79 11.84Q205.31 11.50 205.61 10.94Q205.90 10.37 205.90 9.67L205.90 9.67Q205.90 8.96 205.61 8.41Q205.31 7.85 204.79 7.51Q204.26 7.16 203.60 7.16L203.60 7.16Q202.93 7.16 202.41 7.51Q201.89 7.85 201.59 8.42Q201.29 8.98 201.29 9.67ZM213.98 5.96L215.59 5.96L217.69 10.80L217.33 10.82L219.26 5.96L221.08 5.96L217.62 13.95L215.21 8.82L212.99 13.95L209.52 5.96L211.34 5.96L213.57 11.03L212.92 10.93L214.54 7.18L213.98 5.96ZM239.56 10.78L240.37 12.51Q240.08 12.71 239.52 12.99Q238.95 13.27 238.19 13.46Q237.42 13.66 236.50 13.64L236.50 13.64Q234.97 13.63 233.76 13.10Q232.54 12.58 231.70 11.67Q230.85 10.76 230.39 9.59Q229.93 8.41 229.93 7.07L229.93 7.07Q229.93 5.60 230.40 4.37Q230.87 3.13 231.74 2.21Q232.61 1.30 233.79 0.79Q234.97 0.29 236.38 0.29L236.38 0.29Q237.58 0.29 238.55 0.61Q239.53 0.94 240.19 1.37L240.19 1.37L239.44 3.17Q238.91 2.81 238.15 2.47Q237.38 2.14 236.45 2.14L236.45 2.14Q235.53 2.14 234.71 2.51Q233.89 2.88 233.27 3.54Q232.65 4.19 232.29 5.07Q231.93 5.94 231.93 6.97L231.93 6.97Q231.93 8.01 232.25 8.89Q232.58 9.77 233.18 10.42Q233.78 11.07 234.63 11.43Q235.48 11.79 236.54 11.79L236.54 11.79Q237.55 11.79 238.31 11.48Q239.08 11.18 239.56 10.78L239.56 10.78ZM243.74 13.50L243.74-0.49L245.59-0.49L245.59 13.50L243.74 13.50ZM252.86 13.68L252.86 13.68Q251.55 13.68 250.61 13.17Q249.68 12.65 249.17 11.75Q248.67 10.84 248.67 9.67L248.67 9.67Q248.67 8.55 249.24 7.64Q249.80 6.73 250.77 6.19Q251.73 5.65 252.90 5.65L252.90 5.65Q254.41 5.65 255.41 6.53Q256.41 7.42 256.75 9L256.75 9L250.61 11.12L250.18 10.04L255.10 8.28L254.72 8.51Q254.50 7.96 254.03 7.53Q253.57 7.11 252.76 7.11L252.76 7.11Q252.11 7.11 251.60 7.43Q251.08 7.74 250.79 8.29Q250.49 8.84 250.49 9.58L250.49 9.58Q250.49 10.33 250.80 10.90Q251.12 11.47 251.67 11.79Q252.22 12.11 252.90 12.11L252.90 12.11Q253.39 12.11 253.83 11.93Q254.27 11.75 254.66 11.48L254.66 11.48L255.51 12.85Q254.92 13.23 254.22 13.46Q253.53 13.68 252.86 13.68ZM262.85 13.68L262.85 13.68Q261.79 13.68 260.93 13.24Q260.06 12.80 259.56 11.92Q259.06 11.03 259.06 9.74L259.06 9.74Q259.06 8.46 259.59 7.54Q260.12 6.62 260.99 6.13Q261.86 5.63 262.89 5.63L262.89 5.63Q263.97 5.63 264.66 6.09Q265.36 6.55 265.75 7.16L265.75 7.16L265.63 7.45L265.81 5.96L267.52 5.96L267.52 13.50L265.66 13.50L265.66 11.61L265.86 12.06Q265.79 12.20 265.55 12.47Q265.32 12.73 264.93 13.01Q264.55 13.30 264.03 13.49Q263.52 13.68 262.85 13.68ZM263.36 12.17L263.36 12.17Q263.95 12.17 264.42 11.95Q264.89 11.74 265.21 11.34Q265.54 10.94 265.66 10.40L265.66 10.40L265.66 8.84Q265.52 8.33 265.18 7.97Q264.83 7.60 264.36 7.38Q263.88 7.16 263.30 7.16L263.30 7.16Q262.66 7.16 262.12 7.48Q261.58 7.79 261.25 8.35Q260.93 8.91 260.93 9.65L260.93 9.65Q260.93 10.35 261.26 10.93Q261.59 11.50 262.15 11.84Q262.71 12.17 263.36 12.17ZM271.26 5.96L272.92 5.96L273.08 7.69L273.01 7.45Q273.38 6.64 274.18 6.15Q274.97 5.65 276.05 5.65L276.05 5.65Q277.11 5.65 277.80 6.28Q278.50 6.91 278.51 7.92L278.51 7.92L278.51 13.50L276.66 13.50L276.66 8.57Q276.64 7.99 276.32 7.62Q275.99 7.25 275.31 7.24L275.31 7.24Q274.70 7.24 274.19 7.61Q273.69 7.97 273.40 8.60Q273.11 9.23 273.11 10.06L273.11 10.06L273.11 13.50L271.26 13.50L271.26 5.96ZM282.26 13.50L282.26 5.96L284.11 5.96L284.11 13.50L282.26 13.50ZM282.15 3.26L282.15 3.26Q282.15 2.83 282.49 2.54Q282.83 2.25 283.23 2.25L283.23 2.25Q283.64 2.25 283.97 2.54Q284.29 2.83 284.29 3.26L284.29 3.26Q284.29 3.69 283.97 3.97Q283.64 4.25 283.23 4.25L283.23 4.25Q282.83 4.25 282.49 3.97Q282.15 3.69 282.15 3.26ZM287.84 5.96L289.49 5.96L289.66 7.69L289.58 7.45Q289.96 6.64 290.75 6.15Q291.55 5.65 292.63 5.65L292.63 5.65Q293.69 5.65 294.38 6.28Q295.07 6.91 295.09 7.92L295.09 7.92L295.09 13.50L293.24 13.50L293.24 8.57Q293.22 7.99 292.90 7.62Q292.57 7.25 291.89 7.24L291.89 7.24Q291.28 7.24 290.77 7.61Q290.27 7.97 289.98 8.60Q289.69 9.23 289.69 10.06L289.69 10.06L289.69 13.50L287.84 13.50L287.84 5.96ZM302.53 17.24L302.53 17.24Q301.64 17.24 301.00 17.05Q300.35 16.85 299.84 16.50Q299.32 16.15 298.85 15.75L298.85 15.75L299.95 14.47Q300.51 14.99 301.10 15.31Q301.70 15.62 302.49 15.62L302.49 15.62Q303.28 15.62 303.85 15.36Q304.42 15.10 304.72 14.63Q305.03 14.17 305.03 13.52L305.03 13.52L305.05 11.56L305.17 11.92Q304.87 12.65 304.04 13.17Q303.21 13.68 302.00 13.68L302.00 13.68Q300.98 13.68 300.11 13.16Q299.23 12.64 298.71 11.74Q298.19 10.84 298.19 9.70L298.19 9.70Q298.19 8.51 298.74 7.61Q299.29 6.70 300.19 6.17Q301.09 5.63 302.11 5.63L302.11 5.63Q303.12 5.63 303.91 6.02Q304.70 6.41 305.10 6.98L305.10 6.98L304.99 7.29L305.19 5.96L306.90 5.96L306.90 13.54Q306.90 14.58 306.35 15.42Q305.80 16.25 304.83 16.75Q303.86 17.24 302.53 17.24ZM300.06 9.65L300.06 9.65Q300.06 10.35 300.38 10.93Q300.71 11.50 301.28 11.84Q301.84 12.17 302.54 12.17L302.54 12.17Q303.17 12.17 303.68 11.94Q304.18 11.72 304.53 11.33Q304.88 10.94 305.05 10.42L305.05 10.42L305.05 8.86Q304.88 8.33 304.52 7.97Q304.16 7.60 303.66 7.38Q303.16 7.16 302.54 7.16L302.54 7.16Q301.84 7.16 301.28 7.48Q300.71 7.79 300.38 8.35Q300.06 8.91 300.06 9.65Z" transform="translate(0, 0)"></path></g></svg> <svg x="149.513" y="261.73" viewBox="0.5400000214576721 10.65999984741211 354.84832763671875 25.770000457763672" height="25.770000457763672" width="354.84832763671875" xmlns="http://www.w3.org/2000/svg" style="overflow: visible;"><g fill="#312783" fill-opacity="1" style=""><path d="M12.38 10.66L12.38 10.66Q14.33 10.66 16.45 10.87Q18.58 11.09 20.52 11.66L20.52 11.66L20.02 15.30Q18.86 15.23 17.55 15.21Q16.24 15.19 14.87 15.17Q13.50 15.16 12.10 15.16L12.10 15.16Q11.20 15.16 10.49 15.21Q9.79 15.26 9.31 15.48Q8.82 15.70 8.53 16.18Q8.24 16.67 8.10 17.53L8.10 17.53Q8.03 18.25 8.15 18.74Q8.28 19.22 8.75 19.57Q9.22 19.91 10.15 20.30L10.15 20.30L14.65 22.18Q16.63 23.00 17.64 24.01Q18.65 25.02 18.94 26.37Q19.22 27.72 18.97 29.56L18.97 29.56Q18.65 32.33 17.57 33.82Q16.49 35.32 14.47 35.87Q12.46 36.43 9.18 36.43L9.18 36.43Q7.85 36.43 5.53 36.23Q3.20 36.04 0.54 35.46L0.54 35.46L1.12 31.57Q3.20 31.61 4.75 31.66Q6.30 31.72 7.34 31.73Q8.39 31.75 9.00 31.75L9.00 31.75Q10.58 31.75 11.52 31.55Q12.46 31.36 12.92 30.83Q13.39 30.31 13.54 29.27L13.54 29.27Q13.68 28.44 13.54 27.99Q13.39 27.54 12.96 27.22Q12.53 26.89 11.70 26.57L11.70 26.57L6.98 24.55Q5.08 23.69 4.07 22.63Q3.06 21.56 2.77 20.23Q2.48 18.90 2.66 17.28L2.66 17.28Q2.95 15.19 3.67 13.90Q4.39 12.60 5.60 11.90Q6.80 11.20 8.50 10.93Q10.19 10.66 12.38 10.66ZM32.33 17.71L32.33 17.71Q35.60 17.71 37.58 18.67Q39.56 19.62 40.27 21.71Q40.97 23.80 40.46 27.32L40.46 27.32Q40.00 30.67 38.86 32.67Q37.73 34.67 35.68 35.53Q33.62 36.40 30.35 36.40L30.35 36.40Q27.11 36.40 25.11 35.46Q23.11 34.52 22.37 32.44Q21.64 30.35 22.14 26.89L22.14 26.89Q22.61 23.51 23.74 21.51Q24.88 19.51 26.96 18.61Q29.05 17.71 32.33 17.71ZM32.26 21.56L32.26 21.56Q30.82 21.56 29.93 22.03Q29.05 22.50 28.53 23.74Q28.01 24.98 27.68 27.32L27.68 27.32Q27.40 29.38 27.52 30.53Q27.65 31.68 28.37 32.11Q29.09 32.54 30.49 32.54L30.49 32.54Q31.93 32.54 32.80 32.06Q33.66 31.57 34.16 30.35Q34.67 29.12 34.99 26.89L34.99 26.89Q35.32 24.77 35.17 23.62Q35.03 22.46 34.34 22.01Q33.66 21.56 32.26 21.56ZM46.44 10.76L51.73 10.76L48.92 30.38Q48.78 31.32 49.16 31.70Q49.54 32.08 50.62 32.08L50.62 32.08L52.24 32.08L52.49 35.71Q52.06 35.96 51.25 36.09Q50.44 36.22 49.64 36.29Q48.85 36.36 48.35 36.36L48.35 36.36Q45.83 36.36 44.51 35.06Q43.20 33.77 43.49 31.50L43.49 31.50L46.44 10.76ZM65.59 17.71L65.59 17.71Q66.53 17.71 67.70 17.80Q68.87 17.89 70.07 18.04Q71.28 18.18 72.34 18.36Q73.40 18.54 74.09 18.72L74.09 18.72L70.49 21.56Q69.05 21.53 67.84 21.49Q66.64 21.46 65.59 21.46L65.59 21.46Q64.40 21.46 63.58 21.64Q62.75 21.82 62.21 22.36Q61.67 22.90 61.31 23.94Q60.95 24.98 60.70 26.75L60.70 26.75Q60.37 28.98 60.35 30.15Q60.34 31.32 60.77 31.75Q61.20 32.18 62.14 32.15L62.14 32.15Q63.11 32.11 64.17 31.50Q65.23 30.89 66.29 29.83Q67.36 28.76 68.33 27.43L68.33 27.43L69.23 29.16Q68.51 31.28 67.19 32.89Q65.88 34.49 64.12 35.39Q62.35 36.29 60.19 36.40L60.19 36.40Q57.85 36.47 56.63 35.44Q55.40 34.42 55.12 32.22Q54.83 30.02 55.30 26.71L55.30 26.71Q55.76 23.65 56.63 21.83Q57.49 20.02 58.77 19.13Q60.05 18.25 61.76 17.98Q63.47 17.71 65.59 17.71ZM67.00 31.50L68.87 18.40L74.09 18.72L71.68 35.96L67.54 35.96L67.64 31.93L67.00 31.50ZM78.48 18.18L82.58 18.18L82.62 22.43L83.09 22.93L81.29 35.96L75.96 35.96L78.48 18.18ZM90.22 17.71L91.30 17.71L90.14 22.61L88.85 22.61Q87.59 22.61 86.13 23.18Q84.67 23.76 82.48 24.84L82.48 24.84L82.26 21.74Q84.38 19.76 86.40 18.74Q88.42 17.71 90.22 17.71L90.22 17.71ZM112.32 10.69L112.32 10.69Q114.08 10.69 115.34 10.78Q116.60 10.87 117.67 11.05Q118.73 11.23 119.81 11.56L119.81 11.56L119.09 15.59Q117.94 15.52 116.91 15.48Q115.88 15.44 114.77 15.41Q113.65 15.37 112.10 15.37L112.10 15.37Q110.70 15.37 109.73 15.71Q108.76 16.06 108.05 16.94Q107.35 17.82 106.88 19.48Q106.42 21.13 106.09 23.72L106.09 23.72Q105.66 26.86 105.79 28.58Q105.91 30.31 106.79 31.00Q107.68 31.68 109.51 31.68L109.51 31.68Q112.07 31.68 113.74 31.59Q115.42 31.50 117.04 31.36L117.04 31.36L117.29 35.42Q115.49 35.93 113.69 36.16Q111.89 36.40 109.33 36.40L109.33 36.40Q105.48 36.40 103.28 35.10Q101.09 33.80 100.39 30.92Q99.68 28.04 100.37 23.33L100.37 23.33Q100.87 19.69 101.74 17.24Q102.60 14.80 103.97 13.36Q105.34 11.92 107.39 11.30Q109.44 10.69 112.32 10.69ZM123.73 10.76L129.02 10.76L126.22 30.38Q126.07 31.32 126.45 31.70Q126.83 32.08 127.91 32.08L127.91 32.08L129.53 32.08L129.78 35.71Q129.35 35.96 128.54 36.09Q127.73 36.22 126.94 36.29Q126.14 36.36 125.64 36.36L125.64 36.36Q123.12 36.36 121.81 35.06Q120.49 33.77 120.78 31.50L120.78 31.50L123.73 10.76ZM142.74 17.71L142.74 17.71Q146.02 17.71 147.80 18.41Q149.58 19.12 150.19 20.48Q150.80 21.85 150.48 23.87L150.48 23.87Q150.23 25.52 149.38 26.48Q148.54 27.43 147.06 27.90Q145.58 28.37 143.32 28.55L143.32 28.55L134.24 29.30L134.64 26.39L142.31 25.63Q143.28 25.52 143.89 25.33Q144.50 25.13 144.86 24.68Q145.22 24.23 145.37 23.36L145.37 23.36Q145.48 22.50 145.22 22.09Q144.97 21.67 144.32 21.55Q143.68 21.42 142.60 21.42L142.60 21.42Q141.48 21.42 140.72 21.65Q139.97 21.89 139.46 22.45Q138.96 23.00 138.64 24.03Q138.31 25.06 138.02 26.68L138.02 26.68Q137.66 29.02 137.92 30.20Q138.17 31.39 139.03 31.79Q139.90 32.18 141.44 32.18L141.44 32.18Q142.31 32.18 143.53 32.13Q144.76 32.08 146.03 31.99Q147.31 31.90 148.36 31.79L148.36 31.79L148.72 35.10Q147.64 35.57 146.27 35.86Q144.90 36.14 143.50 36.27Q142.09 36.40 140.87 36.40L140.87 36.40Q137.30 36.40 135.34 35.32Q133.38 34.24 132.75 32.09Q132.12 29.95 132.48 26.78L132.48 26.78Q132.80 24.05 133.58 22.28Q134.35 20.52 135.59 19.53Q136.84 18.54 138.62 18.13Q140.40 17.71 142.74 17.71ZM163.19 17.71L163.19 17.71Q164.12 17.71 165.29 17.80Q166.46 17.89 167.67 18.04Q168.88 18.18 169.94 18.36Q171 18.54 171.68 18.72L171.68 18.72L168.08 21.56Q166.64 21.53 165.44 21.49Q164.23 21.46 163.19 21.46L163.19 21.46Q162 21.46 161.17 21.64Q160.34 21.82 159.80 22.36Q159.26 22.90 158.90 23.94Q158.54 24.98 158.29 26.75L158.29 26.75Q157.97 28.98 157.95 30.15Q157.93 31.32 158.36 31.75Q158.80 32.18 159.73 32.15L159.73 32.15Q160.70 32.11 161.77 31.50Q162.83 30.89 163.89 29.83Q164.95 28.76 165.92 27.43L165.92 27.43L166.82 29.16Q166.10 31.28 164.79 32.89Q163.48 34.49 161.71 35.39Q159.95 36.29 157.79 36.40L157.79 36.40Q155.45 36.47 154.22 35.44Q153 34.42 152.71 32.22Q152.42 30.02 152.89 26.71L152.89 26.71Q153.36 23.65 154.22 21.83Q155.09 20.02 156.37 19.13Q157.64 18.25 159.35 17.98Q161.06 17.71 163.19 17.71ZM164.59 31.50L166.46 18.40L171.68 18.72L169.27 35.96L165.13 35.96L165.24 31.93L164.59 31.50ZM188.35 17.71L188.35 17.71Q189.83 17.71 190.91 18.27Q191.99 18.83 192.49 19.94Q193.00 21.06 192.78 22.75L192.78 22.75L190.91 35.96L185.58 35.96L187.24 24.34Q187.38 23.11 187.07 22.64Q186.77 22.18 185.80 22.21L185.80 22.21Q184.61 22.21 183.28 22.95Q181.94 23.69 180.07 25.16L180.07 25.16L179.46 22.50Q181.58 20.23 183.87 18.97Q186.16 17.71 188.35 17.71ZM176.04 18.18L180.22 18.18L180.22 22.86L180.65 23.36L178.88 35.96L173.56 35.96L176.04 18.18ZM216.18 10.69L216.18 10.69Q217.94 10.69 219.20 10.78Q220.46 10.87 221.53 11.05Q222.59 11.23 223.67 11.56L223.67 11.56L222.95 15.59Q221.80 15.52 220.77 15.48Q219.74 15.44 218.63 15.41Q217.51 15.37 215.96 15.37L215.96 15.37Q214.56 15.37 213.59 15.71Q212.62 16.06 211.91 16.94Q211.21 17.82 210.74 19.48Q210.28 21.13 209.95 23.72L209.95 23.72Q209.52 26.86 209.65 28.58Q209.77 30.31 210.65 31.00Q211.54 31.68 213.37 31.68L213.37 31.68Q215.93 31.68 217.60 31.59Q219.28 31.50 220.90 31.36L220.90 31.36L221.15 35.42Q219.35 35.93 217.55 36.16Q215.75 36.40 213.19 36.40L213.19 36.40Q209.34 36.40 207.14 35.10Q204.95 33.80 204.25 30.92Q203.54 28.04 204.23 23.33L204.23 23.33Q204.73 19.69 205.60 17.24Q206.46 14.80 207.83 13.36Q209.20 11.92 211.25 11.30Q213.30 10.69 216.18 10.69ZM234.72 17.71L234.72 17.71Q238.00 17.71 239.98 18.67Q241.96 19.62 242.66 21.71Q243.36 23.80 242.86 27.32L242.86 27.32Q242.39 30.67 241.25 32.67Q240.12 34.67 238.07 35.53Q236.02 36.40 232.74 36.40L232.74 36.40Q229.50 36.40 227.50 35.46Q225.50 34.52 224.77 32.44Q224.03 30.35 224.53 26.89L224.53 26.89Q225.00 23.51 226.13 21.51Q227.27 19.51 229.36 18.61Q231.44 17.71 234.72 17.71ZM234.65 21.56L234.65 21.56Q233.21 21.56 232.33 22.03Q231.44 22.50 230.92 23.74Q230.40 24.98 230.08 27.32L230.08 27.32Q229.79 29.38 229.91 30.53Q230.04 31.68 230.76 32.11Q231.48 32.54 232.88 32.54L232.88 32.54Q234.32 32.54 235.19 32.06Q236.05 31.57 236.56 30.35Q237.06 29.12 237.38 26.89L237.38 26.89Q237.71 24.77 237.56 23.62Q237.42 22.46 236.74 22.01Q236.05 21.56 234.65 21.56ZM248.83 10.76L254.12 10.76L251.32 30.38Q251.17 31.32 251.55 31.70Q251.93 32.08 253.01 32.08L253.01 32.08L254.63 32.08L254.88 35.71Q254.45 35.96 253.64 36.09Q252.83 36.22 252.04 36.29Q251.24 36.36 250.74 36.36L250.74 36.36Q248.22 36.36 246.91 35.06Q245.59 33.77 245.88 31.50L245.88 31.50L248.83 10.76ZM267.73 17.71L267.73 17.71Q271.01 17.71 272.99 18.67Q274.97 19.62 275.67 21.71Q276.37 23.80 275.87 27.32L275.87 27.32Q275.40 30.67 274.27 32.67Q273.13 34.67 271.08 35.53Q269.03 36.40 265.75 36.40L265.75 36.40Q262.51 36.40 260.51 35.46Q258.52 34.52 257.78 32.44Q257.04 30.35 257.54 26.89L257.54 26.89Q258.01 23.51 259.15 21.51Q260.28 19.51 262.37 18.61Q264.46 17.71 267.73 17.71ZM267.66 21.56L267.66 21.56Q266.22 21.56 265.34 22.03Q264.46 22.50 263.93 23.74Q263.41 24.98 263.09 27.32L263.09 27.32Q262.80 29.38 262.93 30.53Q263.05 31.68 263.77 32.11Q264.49 32.54 265.90 32.54L265.90 32.54Q267.34 32.54 268.20 32.06Q269.06 31.57 269.57 30.35Q270.07 29.12 270.40 26.89L270.40 26.89Q270.72 24.77 270.58 23.62Q270.43 22.46 269.75 22.01Q269.06 21.56 267.66 21.56ZM280.76 18.18L284.87 18.18L284.90 22.43L285.37 22.93L283.57 35.96L278.24 35.96L280.76 18.18ZM292.50 17.71L293.58 17.71L292.43 22.61L291.13 22.61Q289.87 22.61 288.41 23.18Q286.96 23.76 284.76 24.84L284.76 24.84L284.54 21.74Q286.67 19.76 288.68 18.74Q290.70 17.71 292.50 17.71L292.50 17.71ZM304.52 17.71L304.52 17.71Q305.46 17.71 306.63 17.80Q307.80 17.89 309.01 18.04Q310.21 18.18 311.27 18.36Q312.34 18.54 313.02 18.72L313.02 18.72L309.42 21.56Q307.98 21.53 306.77 21.49Q305.57 21.46 304.52 21.46L304.52 21.46Q303.34 21.46 302.51 21.64Q301.68 21.82 301.14 22.36Q300.60 22.90 300.24 23.94Q299.88 24.98 299.63 26.75L299.63 26.75Q299.30 28.98 299.29 30.15Q299.27 31.32 299.70 31.75Q300.13 32.18 301.07 32.15L301.07 32.15Q302.04 32.11 303.10 31.50Q304.16 30.89 305.23 29.83Q306.29 28.76 307.26 27.43L307.26 27.43L308.16 29.16Q307.44 31.28 306.13 32.89Q304.81 34.49 303.05 35.39Q301.28 36.29 299.12 36.40L299.12 36.40Q296.78 36.47 295.56 35.44Q294.34 34.42 294.05 32.22Q293.76 30.02 294.23 26.71L294.23 26.71Q294.70 23.65 295.56 21.83Q296.42 20.02 297.70 19.13Q298.98 18.25 300.69 17.98Q302.40 17.71 304.52 17.71ZM305.93 31.50L307.80 18.40L313.02 18.72L310.61 35.96L306.47 35.96L306.58 31.93L305.93 31.50ZM323.60 17.71L323.60 17.71Q326.02 17.71 328.36 18.04Q330.70 18.36 332.21 19.01L332.21 19.01L331.45 21.35Q329.83 21.31 328.50 21.29Q327.17 21.28 325.80 21.28L325.80 21.28Q324.54 21.28 323.69 21.47Q322.85 21.67 322.34 22.23Q321.84 22.79 321.52 23.87Q321.19 24.95 320.94 26.75L320.94 26.75Q320.69 28.66 320.69 29.79Q320.69 30.92 321.08 31.43Q321.48 31.93 322.42 31.93L322.42 31.93Q323.96 31.90 325.35 31.00Q326.74 30.10 328.36 28.58L328.36 28.58L329.36 30.89Q328.82 31.61 327.92 32.54Q327.02 33.48 325.85 34.36Q324.68 35.24 323.32 35.82Q321.95 36.40 320.40 36.40L320.40 36.40Q318.38 36.40 317.16 35.41Q315.94 34.42 315.52 32.27Q315.11 30.13 315.54 26.71L315.54 26.71Q315.94 23.90 316.66 22.12Q317.38 20.34 318.38 19.39Q319.39 18.43 320.71 18.07Q322.02 17.71 323.60 17.71ZM330.23 10.76L335.52 10.76L331.99 35.96L327.78 35.96L327.82 31.57L327.31 31.25L329.00 18.94L329.33 18.36Q329.33 17.42 329.38 16.52Q329.44 15.62 329.58 14.62L329.58 14.62L330.23 10.76ZM347.04 17.71L347.04 17.71Q350.32 17.71 352.30 18.67Q354.28 19.62 354.98 21.71Q355.68 23.80 355.18 27.32L355.18 27.32Q354.71 30.67 353.57 32.67Q352.44 34.67 350.39 35.53Q348.34 36.40 345.06 36.40L345.06 36.40Q341.82 36.40 339.82 35.46Q337.82 34.52 337.09 32.44Q336.35 30.35 336.85 26.89L336.85 26.89Q337.32 23.51 338.45 21.51Q339.59 19.51 341.68 18.61Q343.76 17.71 347.04 17.71ZM346.97 21.56L346.97 21.56Q345.53 21.56 344.65 22.03Q343.76 22.50 343.24 23.74Q342.72 24.98 342.40 27.32L342.40 27.32Q342.11 29.38 342.23 30.53Q342.36 31.68 343.08 32.11Q343.80 32.54 345.20 32.54L345.20 32.54Q346.64 32.54 347.51 32.06Q348.37 31.57 348.88 30.35Q349.38 29.12 349.70 26.89L349.70 26.89Q350.03 24.77 349.88 23.62Q349.74 22.46 349.06 22.01Q348.37 21.56 346.97 21.56Z" transform="translate(0, 0)"></path></g></svg></svg>